<svg width="220" height="131" viewBox="0 0 220 131" fill="none" xmlns="http://www.w3.org/2000/svg">
<path d="M68.227 0H42.9561L34.3234 53.9464C34.1442 53.9763 33.965 53.9763 33.7559 54.0062C14.6683 56.548 -0.17762 72.6362 0.00160571 90.6383C0.0613477 98.174 2.63026 104.035 7.23039 108.85C11.263 113.126 16.8787 115.548 22.7633 115.578C25.0335 115.578 27.2738 115.219 29.3947 114.472C39.7002 110.913 43.1055 102.271 44.7185 94.3463V94.3762C45.1666 85.5546 40.4768 76.8227 31.4857 71.6494L28.6479 89.6215C27.7219 94.7351 26.5569 97.7853 23.988 98.6525C22.4646 99.1907 20.5827 98.6226 19.3282 97.3068C17.6852 95.6023 16.7294 93.6884 16.6995 90.4588C16.6099 81.4578 23.6893 74.4005 31.4857 71.6494C33.9948 70.7523 36.6533 70.3037 39.3119 70.3336C42.2691 70.3635 45.2263 70.8719 48.0043 71.8288C58.5488 74.3108 64.9113 85.4948 66.4945 97.6058L67.4205 104.394H84.9548L68.227 0ZM50.2447 55.1126L55.2929 16.5069H55.8903L61.506 59.5982C57.9514 57.6544 54.1578 56.1293 50.2447 55.1126ZM218.389 29.1262V104.424H200.914V29.1262H218.389ZM167.339 130.5C190.31 130.5 192.102 117.402 192.102 98.8917L192.251 29.1262H183.171C179.915 29.1262 175.912 31.5784 175.643 34.7183L175.434 37.1405L174.598 34.8379C172.895 30.2925 168.653 27.8703 162.321 27.8703C155.988 27.8703 151.239 30.3224 148.311 35.1668C145.473 39.8617 144.876 45.9322 144.876 50.2084V79.4842C144.876 86.7508 145.922 92.1035 148.102 95.8415C150.761 100.387 155.032 102.6 161.215 102.6C167.07 102.6 171.491 100.118 173.672 95.6023L174.717 93.4492V104.215C174.717 111.601 174.269 116.804 168.385 116.804C167.04 116.804 162.649 116.355 162.649 110.464V110.255H144.995V110.614C144.995 116.326 146.549 120.931 149.596 124.31C153.389 128.407 159.334 130.5 167.339 130.5ZM174.448 76.4639C174.448 83.6408 173.433 87.5283 168.116 87.5283C163.067 87.5283 162.38 82.7138 162.38 77.989V51.7634C162.38 45.8424 164.501 42.9717 168.862 42.9717C173.761 42.9717 174.448 47.7862 174.448 52.511V76.4639ZM219.315 12.5596C219.315 17.9123 215.073 22.069 209.666 22.069C204.469 22.1288 200.227 17.9422 200.167 12.739V12.5297C200.167 7.11709 204.349 2.87076 209.666 2.87076C214.983 2.90066 219.315 7.23671 219.315 12.5596ZM108.045 53.438V104.424H90.3913L90.2419 29.1262H100.04C103.415 29.1262 107.298 31.5185 107.716 35.0472L107.896 36.662L108.732 35.2565C111.57 30.3822 116.2 27.9002 122.443 27.9002C132.48 27.9002 137.587 34.3893 137.587 47.1881V104.424H120.113V51.1354C120.113 45.7228 118.231 42.9717 114.527 42.9717C109.748 42.9717 108.045 45.7228 108.045 53.438Z" fill="#FF6153"/>
<path d="M44.7185 94.4061C45.6146 90.6383 47.6459 76.135 48.0043 71.8587C45.1964 70.9018 42.2691 70.3934 39.3119 70.3635C36.6533 70.3336 33.9948 70.7822 31.4558 71.6793C40.447 76.8227 45.1666 85.5546 44.7185 94.4061Z" fill="#A03027"/>
</svg>
