<svg width="22" height="23" viewBox="0 0 22 23" fill="none" xmlns="http://www.w3.org/2000/svg">
<path d="M21.3726 16.2526L16.56 14.0963C16.3544 14.0047 16.1259 13.9854 15.9089 14.0413C15.692 14.0972 15.4982 14.2253 15.3569 14.4063L13.2256 17.1286C9.88072 15.4799 7.18888 12.6657 5.61182 9.16876L8.21577 6.94059C8.38923 6.7931 8.512 6.59055 8.56549 6.36359C8.61899 6.13663 8.6003 5.89762 8.51226 5.68276L6.44972 0.651421C6.35309 0.419803 6.18218 0.230695 5.96646 0.116705C5.75075 0.00271564 5.50375 -0.0290113 5.26806 0.0269955L0.799233 1.10514C0.571997 1.16 0.369256 1.29376 0.224101 1.48459C0.0789458 1.67543 -5.23459e-05 1.91206 2.60232e-08 2.15588C2.60232e-08 13.6785 8.93336 23 19.9378 23C20.1711 23.0002 20.3976 22.9176 20.5802 22.7659C20.7628 22.6141 20.8908 22.4021 20.9433 22.1644L21.9746 17.4925C22.0278 17.2449 21.9968 16.9856 21.887 16.7593C21.7771 16.533 21.5952 16.3538 21.3726 16.2526Z" fill="#6DC642"/>
</svg>
