<svg
  xmlns="http://www.w3.org/2000/svg"
  width="949"
  height="526"
  viewBox="0 0 949 526"
  fill="none"
>
  <g filter="url(#filter0_d_34065_122)">
    <rect
      x="51.436"
      y="16"
      width="846"
      height="486"
      rx="30"
      fill="white"
      shape-rendering="crispEdges"
    />

    <path
      d="M132.676 163.16H129.716L126.236 155.4H129.156L132.676 163.16ZM126.796 163.16H123.836L120.316 155.4H123.276L126.796 163.16ZM154.274 158.08H142.274V168.8H153.834V171.48H142.274V185H139.314V155.4H154.274V158.08ZM180.768 185H177.968V181.16H177.888C176.955 182.573 175.728 183.653 174.208 184.4C172.715 185.147 171.102 185.52 169.368 185.52C166.062 185.52 163.275 184.427 161.008 182.24C158.742 180.027 157.608 177.28 157.608 174C157.608 170.747 158.755 168.027 161.048 165.84C163.342 163.653 166.115 162.56 169.368 162.56C171.128 162.56 172.755 162.933 174.248 163.68C175.768 164.427 176.982 165.52 177.888 166.96H177.968V163.12H180.768V185ZM175.568 180.4C177.275 178.64 178.128 176.533 178.128 174.08C178.128 171.627 177.275 169.52 175.568 167.76C173.888 165.973 171.822 165.08 169.368 165.08C166.782 165.08 164.635 165.947 162.928 167.68C161.248 169.387 160.408 171.533 160.408 174.12C160.408 176.68 161.262 178.8 162.968 180.48C164.675 182.16 166.808 183 169.368 183C171.822 183 173.888 182.133 175.568 180.4ZM197.793 178.84C197.793 180.92 197.166 182.56 195.913 183.76C194.66 184.933 192.993 185.52 190.913 185.52C188.966 185.52 187.353 184.893 186.073 183.64C184.82 182.36 184.193 180.733 184.193 178.76V178.52H186.993C187.02 179.853 187.353 180.933 187.993 181.76C188.66 182.587 189.633 183 190.913 183C192.166 183 193.153 182.667 193.873 182C194.62 181.307 194.993 180.333 194.993 179.08C194.993 178.013 194.646 177.16 193.953 176.52C193.26 175.853 192.406 175.347 191.393 175C190.406 174.627 189.406 174.24 188.393 173.84C187.406 173.44 186.566 172.813 185.873 171.96C185.18 171.107 184.833 170 184.833 168.64C184.833 166.853 185.42 165.4 186.593 164.28C187.793 163.133 189.286 162.56 191.073 162.56C192.753 162.56 194.166 163.133 195.313 164.28C196.46 165.427 197.033 166.84 197.033 168.52H194.233C194.18 167.533 193.86 166.72 193.273 166.08C192.686 165.413 191.913 165.08 190.953 165.08C190.02 165.08 189.233 165.4 188.593 166.04C187.953 166.653 187.633 167.427 187.633 168.36C187.633 169.267 187.98 170 188.673 170.56C189.366 171.12 190.206 171.573 191.193 171.92C192.206 172.267 193.206 172.653 194.193 173.08C195.206 173.507 196.06 174.2 196.753 175.16C197.446 176.12 197.793 177.347 197.793 178.84ZM211.941 165.64H206.701V185H203.901V165.64H199.301V163.12H203.901V155.4H206.701V163.12H211.941V165.64ZM219.335 179.96L215.815 187.68H212.855L216.375 179.96H219.335ZM260.203 174C260.203 177.28 259.07 180.027 256.803 182.24C254.536 184.427 251.75 185.52 248.443 185.52C246.736 185.52 245.123 185.147 243.603 184.4C242.11 183.627 240.883 182.547 239.923 181.16H239.843V192.68H237.043V163.12H239.843V166.96H239.923C240.91 165.547 242.136 164.467 243.603 163.72C245.096 162.947 246.71 162.56 248.443 162.56C251.696 162.56 254.47 163.653 256.763 165.84C259.056 168.027 260.203 170.747 260.203 174ZM257.403 174.12C257.403 171.533 256.55 169.387 254.843 167.68C253.163 165.947 251.03 165.08 248.443 165.08C245.99 165.08 243.91 165.973 242.203 167.76C240.523 169.52 239.683 171.627 239.683 174.08C239.683 176.533 240.523 178.64 242.203 180.4C243.91 182.133 245.99 183 248.443 183C251.003 183 253.136 182.16 254.843 180.48C256.55 178.8 257.403 176.68 257.403 174.12ZM273.389 165.52C271.442 165.68 269.909 166.347 268.789 167.52C267.695 168.693 267.149 170.253 267.149 172.2V185H264.349V163.12H267.149V166.28H267.229C267.789 164.973 268.562 164.053 269.549 163.52C270.535 162.987 271.815 162.667 273.389 162.56V165.52ZM298.066 174.04C298.066 177.187 296.933 179.893 294.666 182.16C292.426 184.4 289.733 185.52 286.586 185.52C283.493 185.52 280.813 184.4 278.546 182.16C276.306 179.92 275.186 177.267 275.186 174.2C275.186 171.027 276.293 168.293 278.506 166C280.72 163.707 283.413 162.56 286.586 162.56C289.706 162.56 292.4 163.693 294.666 165.96C296.933 168.227 298.066 170.92 298.066 174.04ZM295.266 173.92C295.266 171.52 294.413 169.453 292.706 167.72C291.026 165.96 289 165.08 286.626 165.08C284.2 165.08 282.146 165.987 280.466 167.8C278.813 169.587 277.986 171.707 277.986 174.16C277.986 176.56 278.826 178.64 280.506 180.4C282.186 182.133 284.226 183 286.626 183C289.106 183 291.16 182.12 292.786 180.36C294.44 178.573 295.266 176.427 295.266 173.92ZM312.277 165.64H306.677V185H303.877V165.64H300.477V163.12H303.877C303.931 161.653 304.051 160.56 304.237 159.84C305.117 156.587 307.797 154.933 312.277 154.88V157.48C310.277 157.48 308.837 157.907 307.957 158.76C307.104 159.613 306.677 161.013 306.677 162.96V163.12H312.277V165.64ZM336.655 174.28C336.655 174.387 336.642 174.52 336.615 174.68C336.615 174.84 336.615 174.973 336.615 175.08H316.695C316.802 177.213 317.695 179.067 319.375 180.64C321.082 182.213 323.015 183 325.175 183C326.909 183 328.495 182.533 329.935 181.6C331.402 180.667 332.429 179.413 333.015 177.84H335.975C335.175 180.133 333.789 181.987 331.815 183.4C329.842 184.813 327.642 185.52 325.215 185.52C322.069 185.52 319.375 184.4 317.135 182.16C314.922 179.92 313.815 177.227 313.815 174.08C313.815 170.933 314.922 168.227 317.135 165.96C319.375 163.693 322.055 162.56 325.175 162.56C328.349 162.56 331.055 163.72 333.295 166.04C335.535 168.36 336.655 171.107 336.655 174.28ZM333.775 172.56C333.402 170.4 332.429 168.613 330.855 167.2C329.282 165.787 327.402 165.08 325.215 165.08C323.055 165.08 321.175 165.787 319.575 167.2C318.002 168.613 317.042 170.4 316.695 172.56H333.775ZM352.871 178.84C352.871 180.92 352.244 182.56 350.991 183.76C349.738 184.933 348.071 185.52 345.991 185.52C344.044 185.52 342.431 184.893 341.151 183.64C339.898 182.36 339.271 180.733 339.271 178.76V178.52H342.071C342.098 179.853 342.431 180.933 343.071 181.76C343.738 182.587 344.711 183 345.991 183C347.244 183 348.231 182.667 348.951 182C349.698 181.307 350.071 180.333 350.071 179.08C350.071 178.013 349.724 177.16 349.031 176.52C348.338 175.853 347.484 175.347 346.471 175C345.484 174.627 344.484 174.24 343.471 173.84C342.484 173.44 341.644 172.813 340.951 171.96C340.258 171.107 339.911 170 339.911 168.64C339.911 166.853 340.498 165.4 341.671 164.28C342.871 163.133 344.364 162.56 346.151 162.56C347.831 162.56 349.244 163.133 350.391 164.28C351.538 165.427 352.111 166.84 352.111 168.52H349.311C349.258 167.533 348.938 166.72 348.351 166.08C347.764 165.413 346.991 165.08 346.031 165.08C345.098 165.08 344.311 165.4 343.671 166.04C343.031 166.653 342.711 167.427 342.711 168.36C342.711 169.267 343.058 170 343.751 170.56C344.444 171.12 345.284 171.573 346.271 171.92C347.284 172.267 348.284 172.653 349.271 173.08C350.284 173.507 351.138 174.2 351.831 175.16C352.524 176.12 352.871 177.347 352.871 178.84ZM368.379 178.84C368.379 180.92 367.752 182.56 366.499 183.76C365.246 184.933 363.579 185.52 361.499 185.52C359.552 185.52 357.939 184.893 356.659 183.64C355.406 182.36 354.779 180.733 354.779 178.76V178.52H357.579C357.606 179.853 357.939 180.933 358.579 181.76C359.246 182.587 360.219 183 361.499 183C362.752 183 363.739 182.667 364.459 182C365.206 181.307 365.579 180.333 365.579 179.08C365.579 178.013 365.232 177.16 364.539 176.52C363.846 175.853 362.992 175.347 361.979 175C360.992 174.627 359.992 174.24 358.979 173.84C357.992 173.44 357.152 172.813 356.459 171.96C355.766 171.107 355.419 170 355.419 168.64C355.419 166.853 356.006 165.4 357.179 164.28C358.379 163.133 359.872 162.56 361.659 162.56C363.339 162.56 364.752 163.133 365.899 164.28C367.046 165.427 367.619 166.84 367.619 168.52H364.819C364.766 167.533 364.446 166.72 363.859 166.08C363.272 165.413 362.499 165.08 361.539 165.08C360.606 165.08 359.819 165.4 359.179 166.04C358.539 166.653 358.219 167.427 358.219 168.36C358.219 169.267 358.566 170 359.259 170.56C359.952 171.12 360.792 171.573 361.779 171.92C362.792 172.267 363.792 172.653 364.779 173.08C365.792 173.507 366.646 174.2 367.339 175.16C368.032 176.12 368.379 177.347 368.379 178.84ZM374.727 160.44H371.927V155.4H374.727V160.44ZM374.727 185H371.927V163.12H374.727V185ZM401.894 174.04C401.894 177.187 400.761 179.893 398.494 182.16C396.254 184.4 393.561 185.52 390.414 185.52C387.321 185.52 384.641 184.4 382.374 182.16C380.134 179.92 379.014 177.267 379.014 174.2C379.014 171.027 380.121 168.293 382.334 166C384.548 163.707 387.241 162.56 390.414 162.56C393.534 162.56 396.228 163.693 398.494 165.96C400.761 168.227 401.894 170.92 401.894 174.04ZM399.094 173.92C399.094 171.52 398.241 169.453 396.534 167.72C394.854 165.96 392.828 165.08 390.454 165.08C388.028 165.08 385.974 165.987 384.294 167.8C382.641 169.587 381.814 171.707 381.814 174.16C381.814 176.56 382.654 178.64 384.334 180.4C386.014 182.133 388.054 183 390.454 183C392.934 183 394.988 182.12 396.614 180.36C398.268 178.573 399.094 176.427 399.094 173.92ZM425.385 185H422.585V172.96C422.585 170.267 421.892 168.267 420.505 166.96C419.172 165.707 417.585 165.08 415.745 165.08C413.905 165.08 412.319 165.707 410.985 166.96C409.625 168.24 408.945 170.173 408.945 172.76V185H406.145V163.12H408.945V165.92H409.025C409.719 164.827 410.665 164 411.865 163.44C413.092 162.853 414.385 162.56 415.745 162.56C418.812 162.56 421.185 163.52 422.865 165.44C424.545 167.333 425.385 169.84 425.385 172.96V185ZM452.799 185H449.999V181.16H449.919C448.986 182.573 447.759 183.653 446.239 184.4C444.746 185.147 443.133 185.52 441.399 185.52C438.093 185.52 435.306 184.427 433.039 182.24C430.773 180.027 429.639 177.28 429.639 174C429.639 170.747 430.786 168.027 433.079 165.84C435.373 163.653 438.146 162.56 441.399 162.56C443.159 162.56 444.786 162.933 446.279 163.68C447.799 164.427 449.013 165.52 449.919 166.96H449.999V163.12H452.799V185ZM447.599 180.4C449.306 178.64 450.159 176.533 450.159 174.08C450.159 171.627 449.306 169.52 447.599 167.76C445.919 165.973 443.853 165.08 441.399 165.08C438.813 165.08 436.666 165.947 434.959 167.68C433.279 169.387 432.439 171.533 432.439 174.12C432.439 176.68 433.293 178.8 434.999 180.48C436.706 182.16 438.839 183 441.399 183C443.853 183 445.919 182.133 447.599 180.4ZM460.664 185H457.864V155.4H460.664V185ZM499.206 185H496.406V181.16H496.326C495.392 182.573 494.166 183.653 492.646 184.4C491.152 185.147 489.539 185.52 487.806 185.52C484.499 185.52 481.712 184.427 479.446 182.24C477.179 180.027 476.046 177.28 476.046 174C476.046 170.747 477.192 168.027 479.486 165.84C481.779 163.653 484.552 162.56 487.806 162.56C489.566 162.56 491.192 162.933 492.686 163.68C494.206 164.427 495.419 165.52 496.326 166.96H496.406V163.12H499.206V185ZM494.006 180.4C495.712 178.64 496.566 176.533 496.566 174.08C496.566 171.627 495.712 169.52 494.006 167.76C492.326 165.973 490.259 165.08 487.806 165.08C485.219 165.08 483.072 165.947 481.366 167.68C479.686 169.387 478.846 171.533 478.846 174.12C478.846 176.68 479.699 178.8 481.406 180.48C483.112 182.16 485.246 183 487.806 183C490.259 183 492.326 182.133 494.006 180.4ZM523.51 185H520.71V172.96C520.71 170.267 520.017 168.267 518.63 166.96C517.297 165.707 515.71 165.08 513.87 165.08C512.03 165.08 510.444 165.707 509.11 166.96C507.75 168.24 507.07 170.173 507.07 172.76V185H504.27V163.12H507.07V165.92H507.15C507.844 164.827 508.79 164 509.99 163.44C511.217 162.853 512.51 162.56 513.87 162.56C516.937 162.56 519.31 163.52 520.99 165.44C522.67 167.333 523.51 169.84 523.51 172.96V185ZM550.804 185H548.004V181.16H547.924C546.991 182.547 545.751 183.627 544.204 184.4C542.684 185.147 541.084 185.52 539.404 185.52C536.098 185.52 533.311 184.427 531.044 182.24C528.778 180.027 527.644 177.28 527.644 174C527.644 170.747 528.791 168.027 531.084 165.84C533.378 163.653 536.151 162.56 539.404 162.56C541.111 162.56 542.724 162.933 544.244 163.68C545.764 164.427 546.991 165.493 547.924 166.88H548.004V155.4H550.804V185ZM545.604 180.4C547.311 178.64 548.164 176.533 548.164 174.08C548.164 171.627 547.311 169.52 545.604 167.76C543.924 165.973 541.858 165.08 539.404 165.08C536.818 165.08 534.671 165.947 532.964 167.68C531.284 169.387 530.444 171.533 530.444 174.12C530.444 176.68 531.298 178.8 533.004 180.48C534.711 182.16 536.844 183 539.404 183C541.858 183 543.924 182.133 545.604 180.4ZM588.801 181.56C588.801 183.293 588.668 184.787 588.401 186.04C588.161 187.293 587.628 188.467 586.801 189.56C585.814 190.84 584.534 191.827 582.961 192.52C581.414 193.24 579.801 193.6 578.121 193.6C575.428 193.6 573.068 192.893 571.041 191.48C569.041 190.093 567.668 188.12 566.921 185.56H569.881C570.574 187.32 571.641 188.68 573.081 189.64C574.521 190.6 576.188 191.08 578.081 191.08C580.508 191.08 582.428 190.333 583.841 188.84C585.281 187.347 586.001 185.373 586.001 182.92V181H585.921C585.148 182.467 583.988 183.587 582.441 184.36C580.894 185.133 579.241 185.52 577.481 185.52C574.308 185.52 571.601 184.427 569.361 182.24C567.148 180.027 566.041 177.333 566.041 174.16C566.041 170.96 567.148 168.227 569.361 165.96C571.601 163.693 574.308 162.56 577.481 162.56C579.214 162.56 580.814 162.947 582.281 163.72C583.774 164.493 584.988 165.6 585.921 167.04H586.001V163.12H588.801V181.56ZM583.601 180.36C585.308 178.6 586.161 176.507 586.161 174.08C586.161 171.653 585.321 169.547 583.641 167.76C581.961 165.973 579.908 165.08 577.481 165.08C575.054 165.08 573.001 165.973 571.321 167.76C569.668 169.52 568.841 171.627 568.841 174.08C568.841 176.507 569.668 178.6 571.321 180.36C573.001 182.12 575.054 183 577.481 183C579.881 183 581.921 182.12 583.601 180.36ZM603.115 165.52C601.168 165.68 599.635 166.347 598.515 167.52C597.422 168.693 596.875 170.253 596.875 172.2V185H594.075V163.12H596.875V166.28H596.955C597.515 164.973 598.288 164.053 599.275 163.52C600.262 162.987 601.542 162.667 603.115 162.56V165.52ZM627.593 174.28C627.593 174.387 627.58 174.52 627.553 174.68C627.553 174.84 627.553 174.973 627.553 175.08H607.633C607.74 177.213 608.633 179.067 610.313 180.64C612.02 182.213 613.953 183 616.113 183C617.846 183 619.433 182.533 620.873 181.6C622.34 180.667 623.366 179.413 623.953 177.84H626.913C626.113 180.133 624.726 181.987 622.753 183.4C620.78 184.813 618.58 185.52 616.153 185.52C613.006 185.52 610.313 184.4 608.073 182.16C605.86 179.92 604.753 177.227 604.753 174.08C604.753 170.933 605.86 168.227 608.073 165.96C610.313 163.693 612.993 162.56 616.113 162.56C619.286 162.56 621.993 163.72 624.233 166.04C626.473 168.36 627.593 171.107 627.593 174.28ZM624.713 172.56C624.34 170.4 623.366 168.613 621.793 167.2C620.22 165.787 618.34 165.08 616.153 165.08C613.993 165.08 612.113 165.787 610.513 167.2C608.94 168.613 607.98 170.4 607.633 172.56H624.713ZM654.089 185H651.289V181.16H651.209C650.275 182.573 649.049 183.653 647.529 184.4C646.035 185.147 644.422 185.52 642.689 185.52C639.382 185.52 636.595 184.427 634.329 182.24C632.062 180.027 630.929 177.28 630.929 174C630.929 170.747 632.075 168.027 634.369 165.84C636.662 163.653 639.435 162.56 642.689 162.56C644.449 162.56 646.075 162.933 647.569 163.68C649.089 164.427 650.302 165.52 651.209 166.96H651.289V163.12H654.089V185ZM648.889 180.4C650.595 178.64 651.449 176.533 651.449 174.08C651.449 171.627 650.595 169.52 648.889 167.76C647.209 165.973 645.142 165.08 642.689 165.08C640.102 165.08 637.955 165.947 636.249 167.68C634.569 169.387 633.729 171.533 633.729 174.12C633.729 176.68 634.582 178.8 636.289 180.48C637.995 182.16 640.129 183 642.689 183C645.142 183 647.209 182.133 648.889 180.4ZM669.753 165.64H664.513V185H661.713V165.64H657.113V163.12H661.713V155.4H664.513V163.12H669.753V165.64ZM706.922 174C706.922 177.28 705.788 180.027 703.522 182.24C701.255 184.427 698.468 185.52 695.162 185.52C693.455 185.52 691.842 185.147 690.322 184.4C688.828 183.627 687.602 182.547 686.642 181.16H686.562V192.68H683.762V163.12H686.562V166.96H686.642C687.628 165.547 688.855 164.467 690.322 163.72C691.815 162.947 693.428 162.56 695.162 162.56C698.415 162.56 701.188 163.653 703.482 165.84C705.775 168.027 706.922 170.747 706.922 174ZM704.122 174.12C704.122 171.533 703.268 169.387 701.562 167.68C699.882 165.947 697.748 165.08 695.162 165.08C692.708 165.08 690.628 165.973 688.922 167.76C687.242 169.52 686.402 171.627 686.402 174.08C686.402 176.533 687.242 178.64 688.922 180.4C690.628 182.133 692.708 183 695.162 183C697.722 183 699.855 182.16 701.562 180.48C703.268 178.8 704.122 176.68 704.122 174.12ZM720.107 165.52C718.161 165.68 716.627 166.347 715.507 167.52C714.414 168.693 713.867 170.253 713.867 172.2V185H711.067V163.12H713.867V166.28H713.947C714.507 164.973 715.281 164.053 716.267 163.52C717.254 162.987 718.534 162.667 720.107 162.56V165.52ZM725.899 160.44H723.099V155.4H725.899V160.44ZM725.899 185H723.099V163.12H725.899V185ZM752.786 178.56C750.413 183.2 746.786 185.52 741.906 185.52C738.653 185.52 735.88 184.427 733.586 182.24C731.293 180.027 730.146 177.307 730.146 174.08C730.146 170.88 731.293 168.16 733.586 165.92C735.906 163.68 738.68 162.56 741.906 162.56C744.306 162.56 746.493 163.2 748.466 164.48C750.466 165.76 751.906 167.507 752.786 169.72H749.706C748.933 168.28 747.853 167.147 746.466 166.32C745.106 165.493 743.613 165.08 741.986 165.08C739.48 165.08 737.346 165.947 735.586 167.68C733.826 169.387 732.946 171.493 732.946 174C732.946 176.533 733.813 178.667 735.546 180.4C737.306 182.133 739.453 183 741.986 183C743.64 183 745.146 182.627 746.506 181.88C747.893 181.107 748.96 180 749.706 178.56H752.786ZM759.805 160.44H757.005V155.4H759.805V160.44ZM759.805 185H757.005V163.12H759.805V185ZM784.253 185H781.453V172.96C781.453 170.267 780.759 168.267 779.373 166.96C778.039 165.707 776.453 165.08 774.613 165.08C772.773 165.08 771.186 165.707 769.853 166.96C768.493 168.24 767.813 170.173 767.813 172.76V185H765.013V163.12H767.813V165.92H767.893C768.586 164.827 769.533 164 770.733 163.44C771.959 162.853 773.253 162.56 774.613 162.56C777.679 162.56 780.053 163.52 781.733 165.44C783.413 167.333 784.253 169.84 784.253 172.96V185ZM811.067 181.56C811.067 183.293 810.933 184.787 810.667 186.04C810.427 187.293 809.893 188.467 809.067 189.56C808.08 190.84 806.8 191.827 805.227 192.52C803.68 193.24 802.067 193.6 800.387 193.6C797.693 193.6 795.333 192.893 793.307 191.48C791.307 190.093 789.933 188.12 789.187 185.56H792.147C792.84 187.32 793.907 188.68 795.347 189.64C796.787 190.6 798.453 191.08 800.347 191.08C802.773 191.08 804.693 190.333 806.107 188.84C807.547 187.347 808.267 185.373 808.267 182.92V181H808.187C807.413 182.467 806.253 183.587 804.707 184.36C803.16 185.133 801.507 185.52 799.747 185.52C796.573 185.52 793.867 184.427 791.627 182.24C789.413 180.027 788.307 177.333 788.307 174.16C788.307 170.96 789.413 168.227 791.627 165.96C793.867 163.693 796.573 162.56 799.747 162.56C801.48 162.56 803.08 162.947 804.547 163.72C806.04 164.493 807.253 165.6 808.187 167.04H808.267V163.12H811.067V181.56ZM805.867 180.36C807.573 178.6 808.427 176.507 808.427 174.08C808.427 171.653 807.587 169.547 805.907 167.76C804.227 165.973 802.173 165.08 799.747 165.08C797.32 165.08 795.267 165.973 793.587 167.76C791.933 169.52 791.107 171.627 791.107 174.08C791.107 176.507 791.933 178.6 793.587 180.36C795.267 182.12 797.32 183 799.747 183C802.147 183 804.187 182.12 805.867 180.36ZM820.781 185H817.821V179.96H820.781V185ZM133.196 220.08H126.436V247H123.476V220.08H116.676V217.4H133.196V220.08ZM155.187 247H152.387V234.96C152.387 232.267 151.694 230.267 150.307 228.96C148.974 227.707 147.387 227.08 145.547 227.08C143.707 227.08 142.121 227.707 140.787 228.96C139.427 230.24 138.747 232.173 138.747 234.76V247H135.947V217.4H138.747V227.92H138.827C139.521 226.827 140.467 226 141.667 225.44C142.894 224.853 144.187 224.56 145.547 224.56C148.614 224.56 150.987 225.52 152.667 227.44C154.347 229.333 155.187 231.84 155.187 234.96V247ZM182.241 236.28C182.241 236.387 182.228 236.52 182.201 236.68C182.201 236.84 182.201 236.973 182.201 237.08H162.281C162.388 239.213 163.281 241.067 164.961 242.64C166.668 244.213 168.601 245 170.761 245C172.495 245 174.081 244.533 175.521 243.6C176.988 242.667 178.015 241.413 178.601 239.84H181.561C180.761 242.133 179.375 243.987 177.401 245.4C175.428 246.813 173.228 247.52 170.801 247.52C167.655 247.52 164.961 246.4 162.721 244.16C160.508 241.92 159.401 239.227 159.401 236.08C159.401 232.933 160.508 230.227 162.721 227.96C164.961 225.693 167.641 224.56 170.761 224.56C173.935 224.56 176.641 225.72 178.881 228.04C181.121 230.36 182.241 233.107 182.241 236.28ZM179.361 234.56C178.988 232.4 178.015 230.613 176.441 229.2C174.868 227.787 172.988 227.08 170.801 227.08C168.641 227.08 166.761 227.787 165.161 229.2C163.588 230.613 162.628 232.4 162.281 234.56H179.361ZM204.817 225.12L192.137 254.68H189.217L193.017 246.28L184.497 225.12H187.457L194.417 242.56L201.857 225.12H204.817ZM240.716 240.56C238.343 245.2 234.716 247.52 229.836 247.52C226.583 247.52 223.809 246.427 221.516 244.24C219.223 242.027 218.076 239.307 218.076 236.08C218.076 232.88 219.223 230.16 221.516 227.92C223.836 225.68 226.609 224.56 229.836 224.56C232.236 224.56 234.423 225.2 236.396 226.48C238.396 227.76 239.836 229.507 240.716 231.72H237.636C236.863 230.28 235.783 229.147 234.396 228.32C233.036 227.493 231.543 227.08 229.916 227.08C227.409 227.08 225.276 227.947 223.516 229.68C221.756 231.387 220.876 233.493 220.876 236C220.876 238.533 221.743 240.667 223.476 242.4C225.236 244.133 227.383 245 229.916 245C231.569 245 233.076 244.627 234.436 243.88C235.823 243.107 236.889 242 237.636 240.56H240.716ZM247.734 247H244.934V217.4H247.734V247ZM274.702 236.28C274.702 236.387 274.689 236.52 274.662 236.68C274.662 236.84 274.662 236.973 274.662 237.08H254.742C254.849 239.213 255.742 241.067 257.422 242.64C259.129 244.213 261.062 245 263.222 245C264.956 245 266.542 244.533 267.982 243.6C269.449 242.667 270.476 241.413 271.062 239.84H274.022C273.222 242.133 271.836 243.987 269.862 245.4C267.889 246.813 265.689 247.52 263.262 247.52C260.116 247.52 257.422 246.4 255.182 244.16C252.969 241.92 251.862 239.227 251.862 236.08C251.862 232.933 252.969 230.227 255.182 227.96C257.422 225.693 260.102 224.56 263.222 224.56C266.396 224.56 269.102 225.72 271.342 228.04C273.582 230.36 274.702 233.107 274.702 236.28ZM271.822 234.56C271.449 232.4 270.476 230.613 268.902 229.2C267.329 227.787 265.449 227.08 263.262 227.08C261.102 227.08 259.222 227.787 257.622 229.2C256.049 230.613 255.089 232.4 254.742 234.56H271.822ZM301.198 247H298.398V243.16H298.318C297.385 244.573 296.158 245.653 294.638 246.4C293.145 247.147 291.531 247.52 289.798 247.52C286.491 247.52 283.705 246.427 281.438 244.24C279.171 242.027 278.038 239.28 278.038 236C278.038 232.747 279.185 230.027 281.478 227.84C283.771 225.653 286.545 224.56 289.798 224.56C291.558 224.56 293.185 224.933 294.678 225.68C296.198 226.427 297.411 227.52 298.318 228.96H298.398V225.12H301.198V247ZM295.998 242.4C297.705 240.64 298.558 238.533 298.558 236.08C298.558 233.627 297.705 231.52 295.998 229.76C294.318 227.973 292.251 227.08 289.798 227.08C287.211 227.08 285.065 227.947 283.358 229.68C281.678 231.387 280.838 233.533 280.838 236.12C280.838 238.68 281.691 240.8 283.398 242.48C285.105 244.16 287.238 245 289.798 245C292.251 245 294.318 244.133 295.998 242.4ZM325.503 247H322.703V234.96C322.703 232.267 322.009 230.267 320.623 228.96C319.289 227.707 317.703 227.08 315.863 227.08C314.023 227.08 312.436 227.707 311.103 228.96C309.743 230.24 309.063 232.173 309.063 234.76V247H306.263V225.12H309.063V227.92H309.143C309.836 226.827 310.783 226 311.983 225.44C313.209 224.853 314.503 224.56 315.863 224.56C318.929 224.56 321.303 225.52 322.983 227.44C324.663 229.333 325.503 231.84 325.503 234.96V247ZM352.437 236.28C352.437 236.387 352.423 236.52 352.397 236.68C352.397 236.84 352.397 236.973 352.397 237.08H332.477C332.583 239.213 333.477 241.067 335.157 242.64C336.863 244.213 338.797 245 340.957 245C342.69 245 344.277 244.533 345.717 243.6C347.183 242.667 348.21 241.413 348.797 239.84H351.757C350.957 242.133 349.57 243.987 347.597 245.4C345.623 246.813 343.423 247.52 340.997 247.52C337.85 247.52 335.157 246.4 332.917 244.16C330.703 241.92 329.597 239.227 329.597 236.08C329.597 232.933 330.703 230.227 332.917 227.96C335.157 225.693 337.837 224.56 340.957 224.56C344.13 224.56 346.837 225.72 349.077 228.04C351.317 230.36 352.437 233.107 352.437 236.28ZM349.557 234.56C349.183 232.4 348.21 230.613 346.637 229.2C345.063 227.787 343.183 227.08 340.997 227.08C338.837 227.08 336.957 227.787 335.357 229.2C333.783 230.613 332.823 232.4 332.477 234.56H349.557ZM378.812 247H376.012V243.16H375.932C374.999 244.547 373.759 245.627 372.212 246.4C370.692 247.147 369.092 247.52 367.412 247.52C364.106 247.52 361.319 246.427 359.052 244.24C356.786 242.027 355.652 239.28 355.652 236C355.652 232.747 356.799 230.027 359.092 227.84C361.386 225.653 364.159 224.56 367.412 224.56C369.119 224.56 370.732 224.933 372.252 225.68C373.772 226.427 374.999 227.493 375.932 228.88H376.012V217.4H378.812V247ZM373.612 242.4C375.319 240.64 376.172 238.533 376.172 236.08C376.172 233.627 375.319 231.52 373.612 229.76C371.932 227.973 369.866 227.08 367.412 227.08C364.826 227.08 362.679 227.947 360.972 229.68C359.292 231.387 358.452 233.533 358.452 236.12C358.452 238.68 359.306 240.8 361.012 242.48C362.719 244.16 364.852 245 367.412 245C369.866 245 371.932 244.133 373.612 242.4ZM416.929 236.28C416.929 236.387 416.916 236.52 416.889 236.68C416.889 236.84 416.889 236.973 416.889 237.08H396.969C397.076 239.213 397.969 241.067 399.649 242.64C401.356 244.213 403.289 245 405.449 245C407.182 245 408.769 244.533 410.209 243.6C411.676 242.667 412.702 241.413 413.289 239.84H416.249C415.449 242.133 414.062 243.987 412.089 245.4C410.116 246.813 407.916 247.52 405.489 247.52C402.342 247.52 399.649 246.4 397.409 244.16C395.196 241.92 394.089 239.227 394.089 236.08C394.089 232.933 395.196 230.227 397.409 227.96C399.649 225.693 402.329 224.56 405.449 224.56C408.622 224.56 411.329 225.72 413.569 228.04C415.809 230.36 416.929 233.107 416.929 236.28ZM414.049 234.56C413.676 232.4 412.702 230.613 411.129 229.2C409.556 227.787 407.676 227.08 405.489 227.08C403.329 227.08 401.449 227.787 399.849 229.2C398.276 230.613 397.316 232.4 396.969 234.56H414.049ZM440.424 225.12L431.184 247H428.104L418.864 225.12H421.864L429.584 243.52L437.424 225.12H440.424ZM465.093 236.28C465.093 236.387 465.08 236.52 465.053 236.68C465.053 236.84 465.053 236.973 465.053 237.08H445.133C445.24 239.213 446.133 241.067 447.813 242.64C449.52 244.213 451.453 245 453.613 245C455.346 245 456.933 244.533 458.373 243.6C459.84 242.667 460.866 241.413 461.453 239.84H464.413C463.613 242.133 462.226 243.987 460.253 245.4C458.28 246.813 456.08 247.52 453.653 247.52C450.506 247.52 447.813 246.4 445.573 244.16C443.36 241.92 442.253 239.227 442.253 236.08C442.253 232.933 443.36 230.227 445.573 227.96C447.813 225.693 450.493 224.56 453.613 224.56C456.786 224.56 459.493 225.72 461.733 228.04C463.973 230.36 465.093 233.107 465.093 236.28ZM462.213 234.56C461.84 232.4 460.866 230.613 459.293 229.2C457.72 227.787 455.84 227.08 453.653 227.08C451.493 227.08 449.613 227.787 448.013 229.2C446.44 230.613 445.48 232.4 445.133 234.56H462.213ZM478.389 227.52C476.442 227.68 474.909 228.347 473.789 229.52C472.695 230.693 472.149 232.253 472.149 234.2V247H469.349V225.12H472.149V228.28H472.229C472.789 226.973 473.562 226.053 474.549 225.52C475.535 224.987 476.815 224.667 478.389 224.56V227.52ZM499.7 225.12L487.02 254.68H484.1L487.9 246.28L479.38 225.12H482.34L489.3 242.56L496.74 225.12H499.7ZM513.425 227.64H508.185V247H505.385V227.64H500.785V225.12H505.385V217.4H508.185V225.12H513.425V227.64ZM535.5 247H532.7V234.96C532.7 232.267 532.006 230.267 530.62 228.96C529.286 227.707 527.7 227.08 525.86 227.08C524.02 227.08 522.433 227.707 521.1 228.96C519.74 230.24 519.06 232.173 519.06 234.76V247H516.26V217.4H519.06V227.92H519.14C519.833 226.827 520.78 226 521.98 225.44C523.206 224.853 524.5 224.56 525.86 224.56C528.926 224.56 531.3 225.52 532.98 227.44C534.66 229.333 535.5 231.84 535.5 234.96V247ZM543.594 222.44H540.794V217.4H543.594V222.44ZM543.594 247H540.794V225.12H543.594V247ZM568.042 247H565.242V234.96C565.242 232.267 564.548 230.267 563.162 228.96C561.828 227.707 560.242 227.08 558.402 227.08C556.562 227.08 554.975 227.707 553.642 228.96C552.282 230.24 551.602 232.173 551.602 234.76V247H548.802V225.12H551.602V227.92H551.682C552.375 226.827 553.322 226 554.522 225.44C555.748 224.853 557.042 224.56 558.402 224.56C561.468 224.56 563.842 225.52 565.522 227.44C567.202 229.333 568.042 231.84 568.042 234.96V247ZM594.856 243.56C594.856 245.293 594.722 246.787 594.456 248.04C594.216 249.293 593.682 250.467 592.856 251.56C591.869 252.84 590.589 253.827 589.016 254.52C587.469 255.24 585.856 255.6 584.176 255.6C581.482 255.6 579.122 254.893 577.096 253.48C575.096 252.093 573.722 250.12 572.976 247.56H575.936C576.629 249.32 577.696 250.68 579.136 251.64C580.576 252.6 582.242 253.08 584.136 253.08C586.562 253.08 588.482 252.333 589.896 250.84C591.336 249.347 592.056 247.373 592.056 244.92V243H591.976C591.202 244.467 590.042 245.587 588.496 246.36C586.949 247.133 585.296 247.52 583.536 247.52C580.362 247.52 577.656 246.427 575.416 244.24C573.202 242.027 572.096 239.333 572.096 236.16C572.096 232.96 573.202 230.227 575.416 227.96C577.656 225.693 580.362 224.56 583.536 224.56C585.269 224.56 586.869 224.947 588.336 225.72C589.829 226.493 591.042 227.6 591.976 229.04H592.056V225.12H594.856V243.56ZM589.656 242.36C591.362 240.6 592.216 238.507 592.216 236.08C592.216 233.653 591.376 231.547 589.696 229.76C588.016 227.973 585.962 227.08 583.536 227.08C581.109 227.08 579.056 227.973 577.376 229.76C575.722 231.52 574.896 233.627 574.896 236.08C574.896 238.507 575.722 240.6 577.376 242.36C579.056 244.12 581.109 245 583.536 245C585.936 245 587.976 244.12 589.656 242.36ZM634.344 236C634.344 239.28 633.21 242.027 630.944 244.24C628.677 246.427 625.89 247.52 622.584 247.52C620.877 247.52 619.264 247.147 617.744 246.4C616.25 245.627 615.024 244.547 614.064 243.16H613.984V254.68H611.184V225.12H613.984V228.96H614.064C615.05 227.547 616.277 226.467 617.744 225.72C619.237 224.947 620.85 224.56 622.584 224.56C625.837 224.56 628.61 225.653 630.904 227.84C633.197 230.027 634.344 232.747 634.344 236ZM631.544 236.12C631.544 233.533 630.69 231.387 628.984 229.68C627.304 227.947 625.17 227.08 622.584 227.08C620.13 227.08 618.05 227.973 616.344 229.76C614.664 231.52 613.824 233.627 613.824 236.08C613.824 238.533 614.664 240.64 616.344 242.4C618.05 244.133 620.13 245 622.584 245C625.144 245 627.277 244.16 628.984 242.48C630.69 240.8 631.544 238.68 631.544 236.12ZM660.249 236.28C660.249 236.387 660.236 236.52 660.209 236.68C660.209 236.84 660.209 236.973 660.209 237.08H640.289C640.396 239.213 641.289 241.067 642.969 242.64C644.676 244.213 646.609 245 648.769 245C650.502 245 652.089 244.533 653.529 243.6C654.996 242.667 656.022 241.413 656.609 239.84H659.569C658.769 242.133 657.382 243.987 655.409 245.4C653.436 246.813 651.236 247.52 648.809 247.52C645.662 247.52 642.969 246.4 640.729 244.16C638.516 241.92 637.409 239.227 637.409 236.08C637.409 232.933 638.516 230.227 640.729 227.96C642.969 225.693 645.649 224.56 648.769 224.56C651.942 224.56 654.649 225.72 656.889 228.04C659.129 230.36 660.249 233.107 660.249 236.28ZM657.369 234.56C656.996 232.4 656.022 230.613 654.449 229.2C652.876 227.787 650.996 227.08 648.809 227.08C646.649 227.08 644.769 227.787 643.169 229.2C641.596 230.613 640.636 232.4 640.289 234.56H657.369ZM673.545 227.52C671.598 227.68 670.065 228.347 668.945 229.52C667.851 230.693 667.305 232.253 667.305 234.2V247H664.505V225.12H667.305V228.28H667.385C667.945 226.973 668.718 226.053 669.705 225.52C670.691 224.987 671.971 224.667 673.545 224.56V227.52ZM688.41 227.64H682.81V247H680.01V227.64H676.61V225.12H680.01C680.063 223.653 680.183 222.56 680.37 221.84C681.25 218.587 683.93 216.933 688.41 216.88V219.48C686.41 219.48 684.97 219.907 684.09 220.76C683.237 221.613 682.81 223.013 682.81 224.96V225.12H688.41V227.64ZM712.788 236.28C712.788 236.387 712.775 236.52 712.748 236.68C712.748 236.84 712.748 236.973 712.748 237.08H692.828C692.935 239.213 693.828 241.067 695.508 242.64C697.215 244.213 699.148 245 701.308 245C703.042 245 704.628 244.533 706.068 243.6C707.535 242.667 708.562 241.413 709.148 239.84H712.108C711.308 242.133 709.922 243.987 707.948 245.4C705.975 246.813 703.775 247.52 701.348 247.52C698.202 247.52 695.508 246.4 693.268 244.16C691.055 241.92 689.948 239.227 689.948 236.08C689.948 232.933 691.055 230.227 693.268 227.96C695.508 225.693 698.188 224.56 701.308 224.56C704.482 224.56 707.188 225.72 709.428 228.04C711.668 230.36 712.788 233.107 712.788 236.28ZM709.908 234.56C709.535 232.4 708.562 230.613 706.988 229.2C705.415 227.787 703.535 227.08 701.348 227.08C699.188 227.08 697.308 227.787 695.708 229.2C694.135 230.613 693.175 232.4 692.828 234.56H709.908ZM738.724 240.56C736.351 245.2 732.724 247.52 727.844 247.52C724.591 247.52 721.817 246.427 719.524 244.24C717.231 242.027 716.084 239.307 716.084 236.08C716.084 232.88 717.231 230.16 719.524 227.92C721.844 225.68 724.617 224.56 727.844 224.56C730.244 224.56 732.431 225.2 734.404 226.48C736.404 227.76 737.844 229.507 738.724 231.72H735.644C734.871 230.28 733.791 229.147 732.404 228.32C731.044 227.493 729.551 227.08 727.924 227.08C725.417 227.08 723.284 227.947 721.524 229.68C719.764 231.387 718.884 233.493 718.884 236C718.884 238.533 719.751 240.667 721.484 242.4C723.244 244.133 725.391 245 727.924 245C729.577 245 731.084 244.627 732.444 243.88C733.831 243.107 734.897 242 735.644 240.56H738.724ZM753.542 227.64H748.302V247H745.502V227.64H740.902V225.12H745.502V217.4H748.302V225.12H753.542V227.64ZM759.297 247H756.497V217.4H759.297V247ZM782.825 225.12L770.145 254.68H767.225L771.025 246.28L762.505 225.12H765.465L772.425 242.56L779.865 225.12H782.825ZM786.796 247H783.836V241.96H786.796V247ZM807.05 217.4L803.53 225.16H800.57L804.09 217.4H807.05ZM801.13 217.4L797.65 225.16H794.69L798.21 217.4H801.13Z"
      fill="#0F0F0F"
    />
    <line x1="120.436" y1="352.5" x2="831.436" y2="352.5" stroke="#0F0F0F" />
    <path
      d="M136.436 69L143.137 79.7772L155.457 82.8197L147.278 92.5228L148.192 105.18L136.436 100.4L124.68 105.18L125.594 92.5228L117.415 82.8197L129.735 79.7772L136.436 69Z"
      fill="#6DC642"
    />
    <path
      d="M176.436 69L183.137 79.7772L195.457 82.8197L187.278 92.5228L188.192 105.18L176.436 100.4L164.68 105.18L165.594 92.5228L157.415 82.8197L169.735 79.7772L176.436 69Z"
      fill="#6DC642"
    />
    <path
      d="M216.436 69L223.137 79.7772L235.457 82.8197L227.278 92.5228L228.192 105.18L216.436 100.4L204.68 105.18L205.594 92.5228L197.415 82.8197L209.735 79.7772L216.436 69Z"
      fill="#6DC642"
    />
    <path
      d="M256.436 69L263.137 79.7772L275.457 82.8197L267.278 92.5228L268.192 105.18L256.436 100.4L244.68 105.18L245.594 92.5228L237.415 82.8197L249.735 79.7772L256.436 69Z"
      fill="#6DC642"
    />
    <path
      d="M296.436 69L303.137 79.7772L315.457 82.8197L307.278 92.5228L308.192 105.18L296.436 100.4L284.68 105.18L285.594 92.5228L277.415 82.8197L289.735 79.7772L296.436 69Z"
      fill="#6DC642"
    />
    <path
      d="M128.596 407.048H106.276V405.44H128.596V407.048ZM156.324 413H154.548V397.184H154.5L147.852 413H146.34L139.74 397.184H139.692V413H137.916V395.24H140.652L147.108 410.36L153.588 395.24H156.324V413ZM173.051 413H171.371V410.696H171.323C170.763 411.544 170.027 412.192 169.115 412.64C168.219 413.088 167.251 413.312 166.211 413.312C164.227 413.312 162.555 412.656 161.195 411.344C159.835 410.016 159.155 408.368 159.155 406.4C159.155 404.448 159.843 402.816 161.219 401.504C162.595 400.192 164.259 399.536 166.211 399.536C167.267 399.536 168.243 399.76 169.139 400.208C170.051 400.656 170.779 401.312 171.323 402.176H171.371V399.872H173.051V413ZM169.931 410.24C170.955 409.184 171.467 407.92 171.467 406.448C171.467 404.976 170.955 403.712 169.931 402.656C168.923 401.584 167.683 401.048 166.211 401.048C164.659 401.048 163.371 401.568 162.347 402.608C161.339 403.632 160.835 404.92 160.835 406.472C160.835 408.008 161.347 409.28 162.371 410.288C163.395 411.296 164.675 411.8 166.211 411.8C167.683 411.8 168.923 411.28 169.931 410.24ZM181.514 401.312C180.346 401.408 179.426 401.808 178.754 402.512C178.098 403.216 177.77 404.152 177.77 405.32V413H176.09V399.872H177.77V401.768H177.818C178.154 400.984 178.618 400.432 179.21 400.112C179.802 399.792 180.57 399.6 181.514 399.536V401.312ZM184.989 398.264H183.309V395.24H184.989V398.264ZM184.989 413H183.309V399.872H184.989V413ZM201.457 413H199.777V410.696H199.729C199.169 411.544 198.433 412.192 197.521 412.64C196.625 413.088 195.657 413.312 194.617 413.312C192.633 413.312 190.961 412.656 189.601 411.344C188.241 410.016 187.561 408.368 187.561 406.4C187.561 404.448 188.249 402.816 189.625 401.504C191.001 400.192 192.665 399.536 194.617 399.536C195.673 399.536 196.649 399.76 197.545 400.208C198.457 400.656 199.185 401.312 199.729 402.176H199.777V399.872H201.457V413ZM198.337 410.24C199.361 409.184 199.873 407.92 199.873 406.448C199.873 404.976 199.361 403.712 198.337 402.656C197.329 401.584 196.089 401.048 194.617 401.048C193.065 401.048 191.777 401.568 190.753 402.608C189.745 403.632 189.241 404.92 189.241 406.472C189.241 408.008 189.753 409.28 190.777 410.288C191.801 411.296 193.081 411.8 194.617 411.8C196.089 411.8 197.329 411.28 198.337 410.24ZM223.32 400.976C223.32 402.464 222.816 403.712 221.808 404.72C220.8 405.728 219.544 406.28 218.04 406.376L223.056 413H220.824L214.8 404.96C216.784 404.96 218.056 404.872 218.616 404.696C219.496 404.424 220.2 403.96 220.728 403.304C221.272 402.632 221.544 401.84 221.544 400.928C221.544 400.24 221.368 399.584 221.016 398.96C220.664 398.32 220.192 397.84 219.6 397.52C218.768 397.072 217.616 396.848 216.144 396.848H213.048V413H211.272V395.24H215.784C217.768 395.24 219.224 395.464 220.152 395.912C221.144 396.392 221.92 397.08 222.48 397.976C223.04 398.872 223.32 399.872 223.32 400.976ZM228.394 413H226.618V409.976H228.394V413Z"
      fill="#0F0F0F"
    />
  </g>
  <defs>
    <filter
      id="filter0_d_34065_122"
      x="0"
      y="0"
      width="948.872"
      height="526"
      filterUnits="userSpaceOnUse"
      color-interpolation-filters="sRGB"
    >
      <feFlood flood-opacity="0" result="BackgroundImageFix" />
      <feColorMatrix
        in="SourceAlpha"
        type="matrix"
        values="0 0 0 0 0 0 0 0 0 0 0 0 0 0 0 0 0 0 127 0"
        result="hardAlpha"
      />
      <feOffset dy="4" />
      <feGaussianBlur stdDeviation="10" />
      <feComposite in2="hardAlpha" operator="out" />
      <feColorMatrix
        type="matrix"
        values="0 0 0 0 0 0 0 0 0 0 0 0 0 0 0 0 0 0 0.25 0"
      />
      <feBlend
        mode="normal"
        in2="BackgroundImageFix"
        result="effect1_dropShadow_34065_122"
      />
      <feBlend
        mode="normal"
        in="SourceGraphic"
        in2="effect1_dropShadow_34065_122"
        result="shape"
      />
    </filter>
  </defs>
</svg>
