<svg width="50" height="50" viewBox="0 0 50 50" fill="none" xmlns="http://www.w3.org/2000/svg">
<g clip-path="url(#clip0_34005_430)">
<path fill-rule="evenodd" clip-rule="evenodd" d="M4.46429 25C4.46429 20.1763 5.41279 16.2481 7.13218 13.1801C8.22379 14.4908 9.30179 15.7648 10.3718 17.0077C11.4978 18.3157 13.471 18.4632 14.7789 17.3372C16.0869 16.2112 16.2344 14.2381 15.1084 12.9301C13.8469 11.4647 12.5715 9.95232 11.2724 8.38261C14.5564 5.87811 19.1108 4.46429 25 4.46429C31.8749 4.46429 36.9307 6.39093 40.27 9.73014C43.6089 13.0694 45.5357 18.1251 45.5357 25C45.5357 30.8755 44.1286 35.4223 41.635 38.7043C40.2268 37.5336 38.865 36.385 37.5429 35.2511C36.2325 34.1277 34.2598 34.279 33.1362 35.5891C32.0128 36.8993 32.1641 38.8721 33.4743 39.9957C34.5727 40.9375 35.6964 41.8882 36.8489 42.8514C33.7766 44.5811 29.8389 45.5357 25 45.5357C18.1251 45.5357 13.0694 43.6089 9.73014 40.27C6.39093 36.9307 4.46429 31.8749 4.46429 25ZM42.2543 44.5079C37.9314 48.1843 32.0379 50 25 50C17.3034 50 10.9753 47.8286 6.57343 43.4264C2.17157 39.0246 0 32.6966 0 25C0 17.3034 2.17157 10.9753 6.57343 6.57343C10.9753 2.17157 17.3034 0 25 0C32.6966 0 39.0246 2.17157 43.4264 6.57343C47.8286 10.9753 50 17.3034 50 25C50 32.6966 47.8286 39.0246 43.4264 43.4264C43.2825 43.5707 43.1364 43.7121 42.9882 43.8514L42.975 43.8679C42.7636 44.1239 42.5196 44.3375 42.2543 44.5079ZM27.233 11.8647C27.233 10.6319 26.2336 9.63257 25.0009 9.63257C23.7681 9.63257 22.7687 10.6319 22.7687 11.8647V13.4094C21.2776 13.637 19.9265 14.1031 18.8134 14.8753C17.0149 16.1229 16.0676 18.0156 16.0676 20.2354C16.0676 22.4551 17.0149 24.3478 18.8134 25.5954C20.4993 26.7649 22.731 27.2324 25.1686 27.2324C27.1332 27.2324 28.2093 27.6252 28.7466 28.0269C29.1727 28.3454 29.4685 28.8183 29.4685 29.7651C29.4685 30.5949 29.1794 31.0846 28.6425 31.457C27.993 31.9076 26.7903 32.2978 24.8319 32.2978C21.6625 32.2978 20.633 31.3297 20.3566 30.6743C19.8776 29.5384 18.5685 29.0059 17.4326 29.4849C16.2966 29.9639 15.7641 31.2731 16.2431 32.409C17.3418 35.0142 19.8604 36.26 22.7696 36.6354V38.0261C22.7696 39.2589 23.7689 40.2582 25.0017 40.2582C26.2345 40.2582 27.2339 39.2589 27.2339 38.0261V36.5907C28.7242 36.3629 30.0745 35.8968 31.1871 35.1251C32.9856 33.8775 33.9328 31.9848 33.9328 29.7651C33.9328 27.6624 33.1606 25.7528 31.4196 24.4513C29.79 23.233 27.5999 22.7681 25.1686 22.7681C23.2102 22.7681 22.0075 22.3779 21.358 21.9273C20.8211 21.5549 20.5319 21.0651 20.5319 20.2354C20.5319 19.4056 20.8211 18.9159 21.358 18.5434C22.0075 18.0929 23.2102 17.7026 25.1686 17.7026C28.338 17.7026 29.3674 18.6707 29.6438 19.3261C30.1228 20.462 31.432 20.9946 32.5679 20.5155C33.7038 20.0365 34.2363 18.7274 33.7573 17.5915C32.659 14.9869 30.1412 13.7412 27.233 13.3655V11.8647Z" fill="white"/>
</g>
<defs>
<clipPath id="clip0_34005_430">
<rect width="50" height="50" fill="white"/>
</clipPath>
</defs>
</svg>
