<svg width="43" height="49" viewBox="0 0 43 49" fill="none" xmlns="http://www.w3.org/2000/svg">
<path d="M12.6803 1.66007C13.1867 0.637766 14.2278 0 15.3626 0H26.6549C27.7897 0 28.8308 0.637766 29.3372 1.66007L30.0125 3.00125H39.0163C40.6763 3.00125 42.0175 4.34244 42.0175 6.0025C42.0175 7.66256 40.6763 9.00375 39.0163 9.00375H3.00125C1.34118 9.00375 0 7.66257 0 6.0025C0 4.34243 1.34118 3.00125 3.00125 3.00125H12.005L12.6803 1.66007ZM3.00125 12.005H39.0163V42.0175C39.0163 45.3283 36.3245 48.02 33.0137 48.02H9.00375C5.69299 48.02 3.00125 45.3283 3.00125 42.0175V12.005ZM12.005 18.0075C11.1797 18.0075 10.5044 18.6828 10.5044 19.5081V40.5169C10.5044 41.3422 11.1797 42.0175 12.005 42.0175C12.8303 42.0175 13.5056 41.3422 13.5056 40.5169V19.5081C13.5056 18.6828 12.8303 18.0075 12.005 18.0075ZM21.0088 18.0075C20.1834 18.0075 19.5081 18.6828 19.5081 19.5081V40.5169C19.5081 41.3422 20.1834 42.0175 21.0088 42.0175C21.8341 42.0175 22.5094 41.3422 22.5094 40.5169V19.5081C22.5094 18.6828 21.8341 18.0075 21.0088 18.0075ZM30.0125 18.0075C29.1872 18.0075 28.5119 18.6828 28.5119 19.5081V40.5169C28.5119 41.3422 29.1872 42.0175 30.0125 42.0175C30.8378 42.0175 31.5131 41.3422 31.5131 40.5169V19.5081C31.5131 18.6828 30.8378 18.0075 30.0125 18.0075Z" fill="white"/>
</svg>
