<svg width="40" height="46" viewBox="0 0 40 46" fill="none" xmlns="http://www.w3.org/2000/svg">
<path fill-rule="evenodd" clip-rule="evenodd" d="M4.03971 28.2536C4.80546 21.7939 7.06186 15.5964 10.0887 11.0661C13.1722 6.45089 16.7348 4 20.0015 4C23.2683 4 26.8309 6.45089 29.9144 11.0661C32.9412 15.5964 35.1976 21.7939 35.9633 28.2536C36.3263 31.3156 33.9642 34.144 30.3721 34.5168C28.3669 34.725 26.0498 34.9076 23.538 35.0014L23.556 35.483L22.9741 24.3648C25.2154 23.1297 27.4334 21.8485 29.6192 20.5176C30.8526 19.7667 31.2213 18.3971 30.51 17.165C29.7986 15.9329 28.4282 15.5675 27.1611 16.2601C25.6553 17.0834 24.1649 17.9349 22.6829 18.8003L22.4544 14.4344C22.3764 12.9425 21.4594 12 20.0017 12C18.544 12 17.627 12.9425 17.5489 14.4344L17.1102 22.8186C15.6179 21.9468 14.117 21.0892 12.6005 20.2601C11.3335 19.5675 9.96296 19.9329 9.25166 21.165C8.54026 22.3971 8.90906 23.7667 10.1425 24.5176C12.3385 25.8547 14.5669 27.1419 16.819 28.3821L16.4464 35.503L16.4651 35.0014C13.9532 34.9076 11.6361 34.725 9.63086 34.5168C6.03876 34.144 3.67673 31.3156 4.03971 28.2536ZM16.2635 38.9966C13.6715 38.8985 11.2838 38.7099 9.21786 38.4955C3.78633 37.9317 -0.601098 33.423 0.0675225 27.7827C0.899432 20.7649 3.34897 13.9534 6.76266 8.84396C10.1197 3.81945 14.7322 0 20.0015 0C25.2709 0 29.8834 3.81945 33.2404 8.84395C36.654 13.9534 39.1036 20.7649 39.9355 27.7827C40.6041 33.423 36.2167 37.9317 30.7851 38.4955C28.7194 38.7099 26.3318 38.8985 23.7398 38.9966L23.897 42H29.0015C30.1061 42 31.0015 42.8954 31.0015 44C31.0015 45.1046 30.1061 46 29.0015 46H11.0015C9.89696 46 9.00146 45.1046 9.00146 44C9.00146 42.8954 9.89696 42 11.0015 42H16.1063L16.2635 38.9966Z" fill="white"/>
</svg>
